<svg viewBox="0 0 382.35 93.23" xmlns="http://www.w3.org/2000/svg"><path d="m20.81 60.57s42.19-20.89 55.46-30.36c2 .23 3.66 3.94 5.73 8.06a24.5 24.5 0 0 0 4.82 6.56s98.75-25.31 107.68-42.07 144.71 65.63 171 57.81" fill="none" stroke="#d8eaec"/><path d="m111.56 32.77 11.5 18h-23z" fill="#d8eaec"/><path d="m111.53 72.25v-26.82" fill="none" stroke="#707070"/><path d="m111.56 41.77 11.5 22h-23z" fill="#d8eaec"/><path d="m70.52 72h28.77s-16.62-.19-11.7 6.36 27.42-3.39 35 0 16.38 1.84 17 0-8.8-6.36-8.8-6.36h42.1s-23 8.33-19.81 11.5c2.36 2.37 37.52-4.81 39.67-5.14s16.52 4.64 30.25 5.13 21.42-3.44 26.1 0-2.55 4.38-11.95 4-16.05 1.51-14.15 4.14 9.66-.31 26.1 0" fill="none" stroke="#d8eaec"/><path d="m87.6 85.17a57.2 57.2 0 0 0 21.35 0c6.68-1.34 8.4-3.54 13.65-2.3s6.23 1.28 12.31 2.3 9.33-2.3 9.33-2.3" fill="none" stroke="#d8eaec"/><g fill="#333"><path d="m24.15 69.77v2.3h-24.15v-35h23.4v2.3h-20.85v13.8h18.65v2.25h-18.65v14.35z"/><path d="m62.75 72.07-8.35-11.7a24.71 24.71 0 0 1 -3.4.25h-10v11.45h-2.55v-35h12.55c8.8 0 14.1 4.4 14.1 11.8 0 5.55-3 9.4-8.2 11l8.75 12.25zm-11.75-13.7c7.5 0 11.5-3.5 11.5-9.5s-4-9.5-11.5-9.5h-10v19z"/><path d="m79.45 37.07h2.55v35h-2.55z"/><path d="m166.7 48.87c0 7.35-5.3 11.75-14.1 11.75h-10v11.45h-2.55v-35h12.55c8.8 0 14.1 4.4 14.1 11.8zm-2.6 0c0-6-4-9.5-11.5-9.5h-10v19h10c7.5-.05 11.5-3.5 11.5-9.5z"/><path d="m177.15 59c0-7.75 5.55-13.25 13-13.25s13.05 5.5 13.05 13.25-5.5 13.27-13 13.27-13.05-5.5-13.05-13.27zm23.55 0c0-6.55-4.5-11-10.5-11s-10.5 4.45-10.5 11 4.5 11 10.5 11 10.5-4.43 10.5-11z"/><path d="m228.35 45.77v2.45c-.2 0-.4 0-.6 0-5.8 0-9.25 3.85-9.25 10.3v13.6h-2.5v-26.12h2.4v5.7c1.6-3.83 5.05-5.93 9.95-5.93z"/><path d="m253.65 70.42a7.92 7.92 0 0 1 -5.35 1.85c-4.6 0-7.1-2.7-7.1-7.1v-17.05h-4.8v-2.12h4.8v-5.7h2.5v5.7h8.3v2.15h-8.3v16.8c0 3.35 1.65 5.2 4.85 5.2a6 6 0 0 0 4-1.45z"/><path d="m268.55 42.17v3.83h8.35v2.15h-8.3v23.92h-2.5v-23.95h-4.8v-2.12h4.8v-4c0-4.35 2.6-7.2 7.25-7.2a7.8 7.8 0 0 1 5.15 1.7l-1 1.9a6 6 0 0 0 -4.05-1.45c-3.25-.03-4.9 1.77-4.9 5.22z"/><path d="m284.15 59c0-7.75 5.55-13.25 13.05-13.25s13.05 5.5 13.05 13.25-5.55 13.27-13.05 13.27-13.05-5.5-13.05-13.27zm23.55 0c0-6.55-4.5-11-10.5-11s-10.5 4.45-10.5 11 4.5 11 10.5 11 10.5-4.43 10.5-11z"/><path d="m323 35h2.5v37.1h-2.5z"/><path d="m340.25 37.62a2.06 2.06 0 0 1 2.05-2 2 2 0 1 1 -2.05 2zm.8 8.35h2.5v26.1h-2.5z"/><path d="m356.25 59c0-7.75 5.55-13.25 13.05-13.25s13.05 5.5 13.05 13.25-5.55 13.27-13.05 13.27-13.05-5.5-13.05-13.27zm23.55 0c0-6.55-4.5-11-10.5-11s-10.5 4.45-10.5 11 4.5 11 10.5 11 10.5-4.43 10.5-11z"/></g><path d="m342.06 33.27a4.5 4.5 0 0 1 4.5 4.5 4.49 4.49 0 0 1 -4.5 4.5 4.5 4.5 0 0 1 -4.5-4.5 4.51 4.51 0 0 1 4.5-4.5z" fill="#d8eaec"/></svg>